<?xml version="1.0"?>
<svg xmlns="http://www.w3.org/2000/svg" xmlns:xlink="http://www.w3.org/1999/xlink" xmlns:svgjs="http://svgjs.com/svgjs" version="1.1" width="512" height="512" x="0" y="0" viewBox="0 0 512 512" style="enable-background:new 0 0 512 512" xml:space="preserve"><g><path xmlns="http://www.w3.org/2000/svg" d="m488.75 456.730469c-3.847656-9.507813-3.164062-20.25 1.855469-29.191407 8.234375-13.832031 12.621093-29.613281 12.714843-45.707031 0-67.097656-77.703124-121.492187-173.558593-121.492187-83.277344 0-152.789063 40.976562-169.609375 95.753906 12.695312 1.957031 22.066406 12.882812 22.066406 25.730469 0 12.847656-9.371094 23.773437-22.066406 25.730469 16.820312 54.777343 86.332031 95.765624 169.609375 95.765624 30.480469.1875 60.691406-5.671874 88.894531-17.238281 7.839844-3.265625 16.617188-3.503906 24.621094-.660156l49.414062 17.367187c2.917969 1.113282 6.21875.382813 8.394532-1.855468 2.175781-2.238282 2.8125-5.558594 1.621093-8.445313zm0 0" fill="#ff5364" data-original="#ff5364" style=""/><path xmlns="http://www.w3.org/2000/svg" d="m14.574219 196.390625c3.84375-9.507813 3.160156-20.246094-1.859375-29.191406-8.230469-13.832031-12.621094-29.613281-12.714844-45.707031 0-67.097657 77.707031-121.492188 173.558594-121.492188 83.28125 0 152.789062 40.980469 169.613281 95.753906-12.699219 1.957032-22.070313 12.882813-22.070313 25.730469s9.371094 23.773437 22.070313 25.730469c-16.824219 54.78125-86.332031 95.769531-169.613281 95.769531-30.476563.183594-60.691406-5.675781-88.890625-17.242187-7.839844-3.265626-16.617188-3.5-24.621094-.660157l-49.414063 17.367188c-2.917968 1.113281-6.21875.382812-8.398437-1.855469-2.1757812-2.238281-2.8125-5.558594-1.617187-8.445312zm0 0" fill="#b0d3f0" data-original="#b0d3f0" style=""/><path xmlns="http://www.w3.org/2000/svg" d="m448.441406 315.21875c-3.511718 0-6.671875-2.113281-8.015625-5.355469-1.34375-3.242187-.601562-6.972656 1.878907-9.457031l12.28125-12.28125c2.179687-2.238281 5.398437-3.128906 8.421874-2.332031 3.023438.796875 5.386719 3.15625 6.183594 6.179687.796875 3.023438-.097656 6.242188-2.335937 8.425782l-12.28125 12.277343c-1.625 1.632813-3.832031 2.546875-6.132813 2.542969zm36.820313-36.820312c-3.507813 0-6.671875-2.113282-8.015625-5.355469-1.34375-3.246094-.601563-6.976563 1.882812-9.457031l12.269532-12.273438c3.40625-3.289062 8.816406-3.242188 12.164062.105469 3.347656 3.347656 3.394531 8.761719.105469 12.167969l-12.269531 12.269531c-1.625 1.632812-3.832032 2.546875-6.136719 2.542969zm18.058593-45.332032c-2.300781.003906-4.507812-.910156-6.136718-2.539062s-2.539063-3.835938-2.539063-6.136719v-17.355469c0-4.792968 3.886719-8.679687 8.675781-8.679687 4.792969 0 8.679688 3.886719 8.679688 8.679687v17.355469c0 2.300781-.914062 4.507813-2.539062 6.136719-1.628907 1.628906-3.835938 2.542968-6.140626 2.539062zm0-52.066406c-2.300781 0-4.507812-.914062-6.136718-2.539062-1.628906-1.628907-2.539063-3.835938-2.539063-6.140626v-17.355468c0-4.792969 3.886719-8.675782 8.675781-8.675782 4.792969 0 8.679688 3.882813 8.679688 8.675782v17.355468c0 2.304688-.914062 4.511719-2.539062 6.140626-1.628907 1.625-3.835938 2.539062-6.140626 2.539062zm-9.039062-48.710938c-1.449219 0-2.875-.367187-4.144531-1.058593-1.277344-.703125-2.714844-1.066407-4.171875-1.0625h-8.675782c-4.792968 0-8.679687-3.882813-8.679687-8.675781 0-4.792969 3.886719-8.679688 8.679687-8.679688h8.675782c4.359375.003906 8.648437 1.097656 12.476562 3.179688 3.484375 1.898437 5.234375 5.921874 4.25 9.765624-.980468 3.847657-4.449218 6.535157-8.417968 6.53125zm-51.703125-2.121093h-17.359375c-4.792969 0-8.675781-3.882813-8.675781-8.675781 0-4.792969 3.882812-8.679688 8.675781-8.679688h17.359375c4.789063 0 8.675781 3.886719 8.675781 8.679688 0 4.792968-3.886718 8.675781-8.675781 8.675781zm-52.070313 0h-17.355468c-4.792969 0-8.679688-3.882813-8.679688-8.675781 0-4.792969 3.886719-8.679688 8.679688-8.679688h17.355468c4.792969 0 8.679688 3.886719 8.679688 8.679688 0 4.792968-3.886719 8.675781-8.679688 8.675781zm0 0" fill="#464f5d" data-original="#464f5d" style=""/><path xmlns="http://www.w3.org/2000/svg" d="m130.167969 390.507812h-17.355469c-4.792969 0-8.675781-3.882812-8.675781-8.675781s3.882812-8.679687 8.675781-8.679687h17.355469c4.792969 0 8.679687 3.886718 8.679687 8.679687s-3.886718 8.675781-8.679687 8.675781zm-52.066407 0h-8.679687c-4.355469-.003906-8.644531-1.097656-12.472656-3.175781-4.125-2.335937-5.617188-7.546875-3.347657-11.707031 2.265626-4.164062 7.457032-5.734375 11.652344-3.53125 1.277344.699219 2.710938 1.0625 4.167969 1.058594h8.679687c4.792969 0 8.679688 3.886718 8.679688 8.679687s-3.886719 8.675781-8.679688 8.675781zm-26.035156-33.472656c-4.792968 0-8.675781-3.886718-8.675781-8.679687v-17.355469c0-4.792969 3.882813-8.679688 8.675781-8.679688 4.792969 0 8.679688 3.886719 8.679688 8.679688v17.355469c0 4.792969-3.886719 8.679687-8.679688 8.679687zm1.011719-51.941406c-.996094 0-1.980469-.171875-2.917969-.507812-2.167968-.773438-3.941406-2.375-4.925781-4.453126-.984375-2.078124-1.101563-4.464843-.328125-6.632812 1.285156-3.632812 3.367188-6.929688 6.09375-9.652344l6.855469-6.855468c3.402343-3.300782 8.828125-3.261719 12.179687.09375 3.351563 3.351562 3.394532 8.773437.09375 12.175781l-6.839844 6.839843c-.910156.914063-1.609374 2.015626-2.042968 3.230469-1.230469 3.453125-4.5 5.761719-8.167969 5.761719zm35.457031-37.832031c-3.511718 0-6.675781-2.113281-8.019531-5.355469-1.339844-3.242188-.597656-6.976562 1.882813-9.457031l12.269531-12.269531c3.40625-3.289063 8.820312-3.242188 12.167969.105468 3.347656 3.347656 3.394531 8.757813.105468 12.164063l-12.273437 12.269531c-1.625 1.632812-3.832031 2.546875-6.132813 2.542969zm36.820313-36.820313c-3.507813 0-6.671875-2.117187-8.015625-5.359375-1.34375-3.242187-.601563-6.972656 1.878906-9.453125l4.816406-4.816406c3.402344-3.289062 8.816406-3.242188 12.164063.105469 3.347656 3.347656 3.394531 8.761719.105469 12.167969l-4.8125 4.8125c-1.625 1.628906-3.835938 2.546874-6.136719 2.542968zm0 0" fill="#464f5d" data-original="#464f5d" style=""/><path xmlns="http://www.w3.org/2000/svg" d="m104.136719 60.746094v60.746094h-60.746094c-.011719-16.113282 6.382813-31.574219 17.777344-42.96875 11.394531-11.394532 26.851562-17.789063 42.96875-17.777344zm0 0" fill="#71c285" data-original="#71c285" style=""/><path xmlns="http://www.w3.org/2000/svg" d="m147.089844 164.449219c-17.371094 17.375-43.5 22.570312-66.203125 13.167969-22.699219-9.402344-37.5-31.554688-37.496094-56.125h60.746094zm0 0" fill="#3b97d3" data-original="#3b97d3" style=""/><path xmlns="http://www.w3.org/2000/svg" d="m164.882812 121.492188c.039063 16.117187-6.367187 31.585937-17.792968 42.957031l-42.953125-42.957031v-60.746094c16.113281-.011719 31.570312 6.382812 42.964843 17.777344 11.394532 11.394531 17.792969 26.855468 17.78125 42.96875zm0 0" fill="#ff5364" data-original="#ff5364" style=""/><g xmlns="http://www.w3.org/2000/svg" fill="#3b97d3"><path d="m269.015625 69.421875h-86.777344c-4.792969 0-8.679687-3.882813-8.679687-8.675781 0-4.792969 3.886718-8.679688 8.679687-8.679688h86.777344c4.792969 0 8.679687 3.886719 8.679687 8.679688 0 4.792968-3.886718 8.675781-8.679687 8.675781zm0 0" fill="#3b97d3" data-original="#3b97d3" style=""/><path d="m295.050781 104.136719h-95.457031c-4.792969 0-8.679688-3.886719-8.679688-8.679688s3.886719-8.675781 8.679688-8.675781h95.457031c4.792969 0 8.679688 3.882812 8.679688 8.675781s-3.886719 8.679688-8.679688 8.679688zm0 0" fill="#3b97d3" data-original="#3b97d3" style=""/><path d="m277.695312 138.847656h-43.390624c-4.792969 0-8.675782-3.886718-8.675782-8.679687s3.882813-8.675781 8.675782-8.675781h43.390624c4.792969 0 8.675782 3.882812 8.675782 8.675781s-3.882813 8.679687-8.675782 8.679687zm0 0" fill="#3b97d3" data-original="#3b97d3" style=""/><path d="m286.371094 173.558594h-95.457032c-4.792968 0-8.675781-3.882813-8.675781-8.675782 0-4.792968 3.882813-8.679687 8.675781-8.679687h95.457032c4.792968 0 8.679687 3.886719 8.679687 8.679687 0 4.792969-3.886719 8.675782-8.679687 8.675782zm0 0" fill="#3b97d3" data-original="#3b97d3" style=""/></g><path xmlns="http://www.w3.org/2000/svg" d="m321.085938 329.761719h-86.78125c-4.792969 0-8.675782-3.882813-8.675782-8.675781 0-4.792969 3.882813-8.679688 8.675782-8.679688h86.78125c4.792968 0 8.675781 3.886719 8.675781 8.679688 0 4.792968-3.882813 8.675781-8.675781 8.675781zm0 0" fill="#fb7b76" data-original="#fb7b76" style=""/><path xmlns="http://www.w3.org/2000/svg" d="m303.730469 364.472656h-95.460938c-4.792969 0-8.675781-3.882812-8.675781-8.675781s3.882812-8.679687 8.675781-8.679687h95.460938c4.792969 0 8.675781 3.886718 8.675781 8.679687s-3.882812 8.675781-8.675781 8.675781zm0 0" fill="#fb7b76" data-original="#fb7b76" style=""/><path xmlns="http://www.w3.org/2000/svg" d="m269.015625 399.1875h-43.386719c-4.792968 0-8.679687-3.886719-8.679687-8.679688 0-4.792968 3.886719-8.675781 8.679687-8.675781h43.386719c4.792969 0 8.679687 3.882813 8.679687 8.675781 0 4.792969-3.886718 8.679688-8.679687 8.679688zm0 0" fill="#fb7b76" data-original="#fb7b76" style=""/><path xmlns="http://www.w3.org/2000/svg" d="m312.40625 433.898438h-95.457031c-4.792969 0-8.679688-3.886719-8.679688-8.679688s3.886719-8.675781 8.679688-8.675781h95.457031c4.792969 0 8.679688 3.882812 8.679688 8.675781s-3.886719 8.679688-8.679688 8.679688zm0 0" fill="#fb7b76" data-original="#fb7b76" style=""/><path xmlns="http://www.w3.org/2000/svg" d="m355.789062 433.898438c-3.25-.003907-6.222656-1.824219-7.707031-4.710938-1.484375-2.890625-1.234375-6.367188.65625-9.011719l43.386719-60.742187c1.484375-2.078125 3.804688-3.398438 6.351562-3.613282 2.535157-.183593 5.03125.730469 6.84375 2.519532l18.179688 18.175781 20.3125-33.863281c2.484375-4.070313 7.785156-5.375 11.875-2.921875s5.429688 7.746093 3.007812 11.851562l-26.035156 43.390625c-1.375 2.292969-3.726562 3.820313-6.378906 4.144532-2.652344.3125-5.300781-.597657-7.195312-2.472657l-18.789063-18.789062-37.441406 52.40625c-1.628907 2.285156-4.261719 3.640625-7.066407 3.636719zm0 0" fill="#f3d55b" data-original="#f3d55b" style=""/><path xmlns="http://www.w3.org/2000/svg" d="m451.253906 433.898438h-95.457031c-4.792969 0-8.679687-3.886719-8.679687-8.679688v-104.132812c0-4.792969 3.886718-8.679688 8.679687-8.679688s8.675781 3.886719 8.675781 8.679688v95.457031h86.78125c4.792969 0 8.679688 3.882812 8.679688 8.675781s-3.886719 8.679688-8.679688 8.679688zm0 0" fill="#464f5d" data-original="#464f5d" style=""/><path xmlns="http://www.w3.org/2000/svg" d="m182.238281 381.832031c0 14.375-11.65625 26.03125-26.035156 26.03125s-26.035156-11.65625-26.035156-26.03125c0-14.378906 11.65625-26.035156 26.035156-26.035156s26.035156 11.65625 26.035156 26.035156zm0 0" fill="#f0c419" data-original="#f0c419" style=""/><path xmlns="http://www.w3.org/2000/svg" d="m373.152344 121.492188c0 14.378906-11.65625 26.035156-26.035156 26.035156-14.375 0-26.03125-11.65625-26.03125-26.035156 0-14.378907 11.65625-26.035157 26.03125-26.035157 14.378906 0 26.035156 11.65625 26.035156 26.035157zm0 0" fill="#f0c419" data-original="#f0c419" style=""/></g></svg>
