<?xml version="1.0"?>
<svg xmlns="http://www.w3.org/2000/svg" xmlns:xlink="http://www.w3.org/1999/xlink" xmlns:svgjs="http://svgjs.com/svgjs" version="1.1" width="512" height="512" x="0" y="0" viewBox="0 0 300 300" style="enable-background:new 0 0 512 512" xml:space="preserve"><g><g xmlns="http://www.w3.org/2000/svg"><circle cx="138" cy="158" fill="#d2ddff" r="92" data-original="#d2ddff" style=""/><g fill="#4c241d"><path d="m134 69.705c-2.209 0-4-1.791-4-4v-23.705c0-2.209 1.791-4 4-4h24c2.209 0 4 1.791 4 4s-1.791 4-4 4h-20v19.705c0 2.209-1.791 4-4 4z" fill="#4c241d" data-original="#4c241d" style=""/><path d="m266 69.705c-2.209 0-4-1.791-4-4v-19.705h-20c-2.209 0-4-1.791-4-4s1.791-4 4-4h24c2.209 0 4 1.791 4 4v23.705c0 2.209-1.791 4-4 4z" fill="#4c241d" data-original="#4c241d" style=""/><path d="m158 193.705h-24c-2.209 0-4-1.791-4-4v-23.705c0-2.209 1.791-4 4-4s4 1.791 4 4v19.705h20c2.209 0 4 1.791 4 4s-1.791 4-4 4z" fill="#4c241d" data-original="#4c241d" style=""/><path d="m266 193.705h-24c-2.209 0-4-1.791-4-4s1.791-4 4-4h20v-19.705c0-2.209 1.791-4 4-4s4 1.791 4 4v23.705c0 2.209-1.791 4-4 4z" fill="#4c241d" data-original="#4c241d" style=""/><path d="m182 230c0 2.209-1.791 4-4 4s-4-1.791-4-4 1.791-4 4-4 4 1.791 4 4z" fill="#4c241d" data-original="#4c241d" style=""/><path d="m226 242c-1.023 0-2.047-.391-2.828-1.172l-12-12c-1.562-1.562-1.562-4.094 0-5.656s4.094-1.562 5.656 0l12 12c1.562 1.562 1.562 4.094 0 5.656-.781.781-1.805 1.172-2.828 1.172z" fill="#4c241d" data-original="#4c241d" style=""/><path d="m214 242c-1.023 0-2.047-.391-2.828-1.172-1.562-1.562-1.562-4.094 0-5.656l12-12c1.562-1.562 4.094-1.562 5.656 0s1.562 4.094 0 5.656l-12 12c-.781.781-1.805 1.172-2.828 1.172z" fill="#4c241d" data-original="#4c241d" style=""/></g><g><path d="m242 170v-19.9c0-13.31-10.79-24.1-24.1-24.1h-35.8c-13.31 0-24.1 10.79-24.1 24.1v19.9" fill="#cccccc" data-original="#cccccc" style=""/><path d="m242 174c-2.209 0-4-1.791-4-4v-19.9c0-11.082-9.018-20.1-20.1-20.1h-35.8c-11.082 0-20.1 9.018-20.1 20.1v19.9c0 2.209-1.791 4-4 4s-4-1.791-4-4v-19.9c0-15.494 12.605-28.1 28.1-28.1h35.8c15.494 0 28.1 12.605 28.1 28.1v19.9c0 2.209-1.791 4-4 4z" fill="#4c241d" data-original="#4c241d" style=""/></g><g><path d="m174 158v12" fill="#9dc1e4" data-original="#9dc1e4" style=""/><path d="m174 174c-2.209 0-4-1.791-4-4v-12c0-2.209 1.791-4 4-4s4 1.791 4 4v12c0 2.209-1.791 4-4 4z" fill="#4c241d" data-original="#4c241d" style=""/></g><g><path d="m202 138h-4c-4.418 0-8-3.582-8-8v-20h20v20c0 4.418-3.582 8-8 8z" fill="#eaeaea" data-original="#eaeaea" style=""/><path d="m202 142h-4c-6.617 0-12-5.383-12-12v-20c0-2.209 1.791-4 4-4h20c2.209 0 4 1.791 4 4v20c0 6.617-5.383 12-12 12zm-8-28v16c0 2.205 1.795 4 4 4h4c2.205 0 4-1.795 4-4v-16z" fill="#4c241d" data-original="#4c241d" style=""/></g><g><path d="m226 158v12" fill="#9dc1e4" data-original="#9dc1e4" style=""/><path d="m226 174c-2.209 0-4-1.791-4-4v-12c0-2.209 1.791-4 4-4s4 1.791 4 4v12c0 2.209-1.791 4-4 4z" fill="#4c241d" data-original="#4c241d" style=""/></g><g><path d="m200 118c-14.359 0-26-11.641-26-26v-18h52v18c0 14.359-11.641 26-26 26z" fill="#eaeaea" data-original="#eaeaea" style=""/><path d="m200 122c-16.543 0-30-13.457-30-30v-18c0-2.209 1.791-4 4-4h52c2.209 0 4 1.791 4 4v18c0 16.543-13.457 30-30 30zm-22-44v14c0 12.131 9.869 22 22 22s22-9.869 22-22v-14z" fill="#4c241d" data-original="#4c241d" style=""/></g><g><path d="m216.379 58h-2.379v-.214c0-6.509-5.277-11.786-11.786-11.786h-21.248c-8.266 0-14.966 6.7-14.966 14.966v13.034h48v4c0 6.627 5.373 12 12 12v-16-6.379c0-5.314-4.308-9.621-9.621-9.621z" fill="#cccccc" data-original="#cccccc" style=""/><path d="m226 94c-8.822 0-16-7.178-16-16h-44c-2.209 0-4-1.791-4-4v-13.035c0-10.457 8.508-18.965 18.965-18.965h21.25c7.418 0 13.656 5.143 15.338 12.051 6.963.597 12.447 6.455 12.447 13.57v22.379c0 2.209-1.791 4-4 4zm-56-24h44c2.209 0 4 1.791 4 4v4c0 2.955 1.611 5.541 4 6.926v-17.305c0-3.1-2.521-5.621-5.621-5.621h-2.379c-2.209 0-4-1.791-4-4 0-4.508-3.492-8-7.785-8h-21.25c-6.047 0-10.965 4.918-10.965 10.965z" fill="#4c241d" data-original="#4c241d" style=""/></g><g><path d="m118 258v-19.9c0-13.31-10.79-24.1-24.1-24.1h-35.8c-13.31 0-24.1 10.79-24.1 24.1v19.9" fill="#ffce56" data-original="#ffce56" style=""/><path d="m118 262c-2.209 0-4-1.791-4-4v-19.9c0-11.082-9.018-20.1-20.1-20.1h-35.8c-11.082 0-20.1 9.018-20.1 20.1v19.9c0 2.209-1.791 4-4 4s-4-1.791-4-4v-19.9c0-15.494 12.605-28.1 28.1-28.1h35.8c15.494 0 28.1 12.605 28.1 28.1v19.9c0 2.209-1.791 4-4 4z" fill="#4c241d" data-original="#4c241d" style=""/></g><g><path d="m50 246v12" fill="#9dc1e4" data-original="#9dc1e4" style=""/><path d="m50 262c-2.209 0-4-1.791-4-4v-12c0-2.209 1.791-4 4-4s4 1.791 4 4v12c0 2.209-1.791 4-4 4z" fill="#4c241d" data-original="#4c241d" style=""/></g><g><path d="m78 226h-4c-4.418 0-8-3.582-8-8v-20h20v20c0 4.418-3.582 8-8 8z" fill="#ffded5" data-original="#ffded5" style=""/><path d="m78 230h-4c-6.617 0-12-5.383-12-12v-20c0-2.209 1.791-4 4-4h20c2.209 0 4 1.791 4 4v20c0 6.617-5.383 12-12 12zm-8-28v16c0 2.205 1.795 4 4 4h4c2.205 0 4-1.795 4-4v-16z" fill="#4c241d" data-original="#4c241d" style=""/></g><g><path d="m102 246v12" fill="#9dc1e4" data-original="#9dc1e4" style=""/><path d="m102 262c-2.209 0-4-1.791-4-4v-12c0-2.209 1.791-4 4-4s4 1.791 4 4v12c0 2.209-1.791 4-4 4z" fill="#4c241d" data-original="#4c241d" style=""/></g><g><path d="m76 206c-14.359 0-26-11.641-26-26v-18h52v18c0 14.359-11.641 26-26 26z" fill="#ffded5" data-original="#ffded5" style=""/><path d="m76 210c-16.543 0-30-13.457-30-30v-18c0-2.209 1.791-4 4-4h52c2.209 0 4 1.791 4 4v18c0 16.543-13.457 30-30 30zm-22-44v14c0 12.131 9.869 22 22 22s22-9.869 22-22v-14z" fill="#4c241d" data-original="#4c241d" style=""/></g><g><path d="m59.621 146h2.379v-.214c0-6.509 5.277-11.786 11.786-11.786h21.248c8.266 0 14.966 6.7 14.966 14.966v13.034h-48v4c0 6.627-5.373 12-12 12v-16-6.379c0-5.314 4.308-9.621 9.621-9.621z" fill="#9dc1e4" data-original="#9dc1e4" style=""/><path d="m50 182c-2.209 0-4-1.791-4-4v-22.379c0-7.127 5.502-12.992 12.479-13.574 1.73-6.971 7.937-12.047 15.306-12.047h21.248c10.459 0 18.967 8.508 18.967 18.965v13.035c0 2.209-1.791 4-4 4h-44c0 8.822-7.178 16-16 16zm9.621-32c-3.1 0-5.621 2.521-5.621 5.621v17.305c2.389-1.385 4-3.971 4-6.926v-4c0-2.209 1.791-4 4-4h44v-9.035c0-6.047-4.92-10.965-10.967-10.965h-21.248c-4.293 0-7.785 3.492-7.785 7.785 0 2.209-1.791 4.215-4 4.215z" fill="#4c241d" data-original="#4c241d" style=""/></g><path d="m124 118h-80c-7.719 0-14-6.281-14-14s6.281-14 14-14h30c2.209 0 4 1.791 4 4s-1.791 4-4 4h-30c-3.309 0-6 2.691-6 6s2.691 6 6 6h80c3.309 0 6-2.691 6-6s-2.691-6-6-6h-30c-2.209 0-4-1.791-4-4s1.791-4 4-4h30c7.719 0 14 6.281 14 14s-6.281 14-14 14z" fill="#4c241d" data-original="#4c241d" style=""/><path d="m105.996 106c-.6 0-1.211-.135-1.785-.422l-16-8c-1.356-.678-2.211-2.062-2.211-3.578s.855-2.9 2.211-3.578l16-8c1.979-.988 4.379-.186 5.367 1.789.988 1.977.188 4.379-1.789 5.367l-8.846 4.422 8.846 4.422c1.977.988 2.777 3.391 1.789 5.367-.701 1.402-2.113 2.211-3.582 2.211z" fill="#4c241d" data-original="#4c241d" style=""/></g></g></svg>
