<svg id="Layer_1" data-name="Layer 1" xmlns="http://www.w3.org/2000/svg" viewBox="0 0 300 300"><defs><style>.cls-1{fill:#ebbc11;}</style></defs><title>-icon-color</title><path class="cls-1" d="M299.45,81.89c0-7.09-.09-14-2.35-21.06-2.61-8.09-8.73-13.22-14.65-17.52S268.13,37.92,260.09,38c-28.71.23-57.43.09-86.15.09-46.51,0-93,.14-139.52,0C15.64,38,.3,56,.5,71.37,1.06,113.24.88,155.12.61,197c-.12,19.88,17.32,35.5,36.52,34.76,5.28-.2,4.24-3.24,4.3-6.21s.72-5.93-4.46-5.94c-15.47,0-24.57-9.65-24.58-25.23q0-59.48,0-118.95c0-15,7.59-23.67,22.43-25.91l.27.17.27-.17c2.21.09,4.42.26,6.63.26q110.18,0,220.33,0c4.12,0,8,.39,11.81,2.3,7,3.53,11.09,9.28,13.68,16.39q0,47.15,0,94.29c0,11.27.18,22.54.27,33.81-2,15-10.28,22.83-25.39,23.06-5.68.09-3.72,3.75-3.89,6.39-.18,2.79-.91,5.71,4.11,5.76,19.46.22,36.45-13.41,36.54-35.36C299.57,158.23,299.46,120.06,299.45,81.89Z"/><path class="cls-1" d="M191.94,174.53c-.07-10.47-6.41-17.28-16.05-17.39-9.24-.11-16.48,7.08-16.55,17.13q-.26,35.23,0,70.47c.08,10.06,7.41,17.41,16.54,17.27s16-7.47,16.06-17.57c.05-11.65,0-23.3,0-34.95S192,186.18,191.94,174.53Z"/><path class="cls-1" d="M88.93,207.9c-.13-9-6.52-15.93-14.83-16.23-9.95-.36-17.35,5.54-17.66,15.09-.44,13.13-.43,26.3,0,39.43A16.37,16.37,0,0,0,73.23,262c8.93-.41,15.56-7.5,15.69-16.88.09-6.11,0-12.22,0-18.33C89,220.49,89,214.19,88.93,207.9Z"/><path class="cls-1" d="M243.61,108.69c0-10.85-6.55-17.24-16.82-17.1-9.53.14-15.83,7.08-15.83,17.47q0,33.33,0,66.65h0c0,23,0,45.91,0,68.87,0,7.7,4.18,13.53,10.85,15.77A16.21,16.21,0,0,0,240.32,255c3-4,3.18-8.88,3.27-13.54.24-11.47.07-23,.06-34.43C243.65,174.23,243.72,141.46,243.61,108.69Z"/><path class="cls-1" d="M129.14,133.08c-12.19-1.94-21,2.95-21.14,16.53-.18,15.73,0,31.48,0,47.22,0,15.92,0,31.85,0,47.77,0,10,7,17.35,16.31,17.41,9,.06,16.19-7.11,16.24-17q.25-48,.06-96.11C140.57,141,135.72,134.13,129.14,133.08Z"/></svg>