<?xml version="1.0" encoding="utf-8"?>
<!-- Generator: Adobe Illustrator 16.0.0, SVG Export Plug-In . SVG Version: 6.00 Build 0)  -->
<!DOCTYPE svg PUBLIC "-//W3C//DTD SVG 1.1//EN" "http://www.w3.org/Graphics/SVG/1.1/DTD/svg11.dtd">
<svg version="1.1" xmlns="http://www.w3.org/2000/svg" xmlns:xlink="http://www.w3.org/1999/xlink" x="0px" y="0px" width="512px"
	 height="512px" viewBox="0 0 512 512" enable-background="new 0 0 512 512" xml:space="preserve">
<g id="Layer_1" display="none">
	<g display="inline">
		<defs>
			<rect id="SVGID_1_" width="512" height="512"/>
		</defs>
		<clipPath id="SVGID_2_">
			<use xlink:href="#SVGID_1_"  overflow="visible"/>
		</clipPath>
		<g clip-path="url(#SVGID_2_)">
			<rect x="439" opacity="0.4" fill="#FF5050" enable-background="new    " width="73" height="512"/>
			<rect opacity="0.4" fill="#FF5050" enable-background="new    " width="73" height="512"/>
			<rect x="73" opacity="0.1" fill="#FF5050" enable-background="new    " width="73" height="512"/>
			<rect y="73" opacity="0.1" fill="#FF5050" enable-background="new    " width="512" height="73"/>
			<rect x="366" opacity="0.1" fill="#FF5050" enable-background="new    " width="73" height="512"/>
			<rect y="366" opacity="0.1" fill="#FF5050" enable-background="new    " width="512" height="73"/>
			<rect x="-0.5" opacity="0.4" fill="#FF5050" enable-background="new    " width="512" height="73"/>
			<rect y="439" opacity="0.4" fill="#FF5050" enable-background="new    " width="512" height="73"/>
			<path fill="none" stroke="#FF4D4D" stroke-width="0.25" d="M73,0v512"/>
			<path fill="none" stroke="#FF4D4D" stroke-width="0.25" d="M146,0v512"/>
			<path fill="none" stroke="#FF4D4D" stroke-width="0.25" d="M219,0v512"/>
			<path fill="none" stroke="#FF4D4D" stroke-width="0.25" d="M292,0v512"/>
			<path fill="none" stroke="#FF4D4D" stroke-width="0.25" d="M366,0v512"/>
			<path fill="none" stroke="#FF4D4D" stroke-width="0.25" d="M439,0v512"/>
			<path fill="none" stroke="#FF4D4D" stroke-width="0.25" d="M512,73H0"/>
			<path fill="none" stroke="#FF4D4D" stroke-width="0.25" d="M512,146H0"/>
			<path fill="none" stroke="#FF4D4D" stroke-width="0.25" d="M512,219H0"/>
			<path fill="none" stroke="#FF4D4D" stroke-width="0.25" d="M512,292H0"/>
			<path fill="none" stroke="#FF4D4D" stroke-width="0.25" d="M512,366H0"/>
			<path fill="none" stroke="#FF4D4D" stroke-width="0.25" d="M512,439H0"/>
		</g>
	</g>
</g>
<g id="Layer_2">
	<g id="Layer_3">
		<path fill-rule="evenodd" clip-rule="evenodd" fill="#131D28" d="M256.542,98.371c-0.928-9.119-3.377-17.189-13.933-19.732
			c21.474-9.346,38.05,0.648,38.541,25.218c0.968,48.321,1.064,96.689,0.038,145.007c-0.535,25.151-19.545,36.889-39.955,46.189
			c-0.541-0.824-0.689-1.714-0.452-2.669c15.321-18.45,15.936-40.756,16.071-63.004c0.248-40.937,0.079-81.875,0.054-122.813
			C256.903,103.836,257.253,101.076,256.542,98.371z"/>
		<path fill-rule="evenodd" clip-rule="evenodd" fill="#131D28" d="M374.855,152.786c21.664-6.607,36.589,3.003,36.917,25.674
			c0.703,48.66,0.896,97.347,0.031,146c-0.438,24.675-18.712,36.362-38.754,45.489c-0.526-0.691-0.705-1.462-0.544-2.313
			c5.854-9.109,12.343-18.04,12.711-29.42c0.266-8.14,1.938-16.098,2.415-24.192c0.043-45.531,0.315-91.063-0.066-136.59
			c-0.076-9.118-0.431-19.508-12.805-22.198C373.643,154.376,373.429,153.55,374.855,152.786z"/>
		<path fill-rule="evenodd" clip-rule="evenodd" fill="#131D28" d="M299.982,120.84c-1.403-8.713-4.857-15.588-14.869-16.58
			l-0.06-0.015c19.581-10.273,38.216-1.835,38.984,20.853c1.712,50.601,1.636,101.316,0.32,151.936
			c-0.53,20.347-16.126,32.12-33.788,40.188c-0.402,0.516-0.901,0.9-1.518,1.131c-0.388,0.357-0.841,0.502-1.364,0.431
			c-0.351,0.208-0.703,0.417-1.058,0.625c-0.32-0.258-0.638-0.519-0.958-0.782c-0.072-0.41-0.141-0.819-0.216-1.232
			c0.087-0.417,0.178-0.825,0.26-1.241c0.289-0.812,0.679-1.569,1.141-2.302c0.231-0.373,0.48-0.727,0.708-1.101
			c0.462-0.766,0.985-1.48,1.537-2.187c4.718-6.349,7.356-13.469,8.333-21.301c1.505-12.071,3.135-24.07,3.044-36.336
			c-0.307-41.302-0.108-82.609-0.135-123.915C300.344,126.287,300.691,123.536,299.982,120.84z"/>
		<path fill-rule="evenodd" clip-rule="evenodd" fill="#131D28" d="M344.192,287.062c0.042-44.636,0.326-89.271-0.06-133.902
			c-0.086-10.041-0.965-21.005-14.266-23.734c16.994-10.328,36.715-1.893,37.434,19.121c1.765,51.532,1.724,103.184,0.354,154.731
			c-0.501,18.811-14.807,30.688-31.803,38.101c-1.729,0.646-2.272-0.496-2.711-1.793c-0.104-0.994-0.211-2.087,0.298-2.918
			C342.799,321.376,342.17,303.932,344.192,287.062z"/>
		<path fill-rule="evenodd" clip-rule="evenodd" fill="#788792" d="M256.542,98.371c0.298,47.726,0.566,95.453,0.906,143.179
			c0.137,19.061,0.645,38.186-16.008,52.062c-1.059,0.448-1.44,1.575-2.266,2.257c-0.35,0.415-0.74,0.79-1.167,1.126
			c-0.503,0.22-0.931,0.539-1.293,0.95c-0.525,0.4-1.052,0.802-1.578,1.202c-0.999-1.041-0.983,0.24-1.372,0.6
			c-32.194,18.709-64.261,37.644-96.63,56.046c-20.481,11.644-37.906,4.841-42.884-15.989c-0.806-1.541-0.92-3.06,0.146-4.54
			c7.002,8.377,15.494,7.206,23.539,2.629c40.678-23.15,81.367-46.299,121.613-70.186c11.271-6.689,16.665-18.114,16.682-31.651
			C256.289,190.161,256.431,144.266,256.542,98.371z"/>
		<path fill-rule="evenodd" clip-rule="evenodd" fill="#788792" d="M299.982,120.84c0.317,48.558,0.751,97.114,0.896,145.674
			c0.05,16.843,1.552,34.218-11.62,47.936c-0.623,0.333-1.098,0.81-1.43,1.433l-0.07,0.069c-0.716,0.235-1.16,0.745-1.427,1.43
			l-0.037,0.056c-0.512,0.364-0.899,0.83-1.143,1.411c-0.219,0.219-0.438,0.438-0.658,0.653c-0.861,0.898-1.975,1.488-2.864,2.352
			l0.13-0.13c-0.618,0.444-1.098,1.029-1.629,1.562c-0.521,0.437-1.042,0.872-1.562,1.308c-0.668-0.264-1.111-0.033-1.364,0.618
			c-32.729,18.869-65.312,37.995-98.238,56.514c-19.562,11-38.338,2.476-41.277-17.956c-0.706-1.473-1.231-2.856,1.333-2.733
			c7.35,8.452,15.718,6.081,23.637,1.556c39.115-22.358,78.121-44.907,117.095-67.512c13.373-7.756,20.01-19.336,19.975-35.088
			C299.625,213.609,299.872,167.224,299.982,120.84z"/>
		<path fill-rule="evenodd" clip-rule="evenodd" fill="#788792" d="M344.192,287.062c0.079,18.139,2.43,36.734-10.508,52.258
			c-0.039,1.297-0.769,2.235-1.613,3.114c-0.611,0.643-1.309,1.199-1.924,1.841c-0.612,0.629-1.488,0.916-2.08,1.582
			c-0.521,0.402-1.044,0.803-1.565,1.205c-0.66-0.249-1.115-0.042-1.364,0.619c-0.511,0.355-1.02,0.712-1.528,1.069
			c-0.504-0.101-0.937,0.027-1.302,0.389c-0.583,0.396-1.249,0.67-1.709,1.234c-32.232,18.692-64.415,37.468-96.71,56.047
			c-21.015,12.09-41.585,2.448-42.6-20.765c9.352,9.531,18.512,5.924,27.628,0.672c38.368-22.114,76.727-44.247,115.096-66.357
			C336.714,312.65,342.064,300.852,344.192,287.062z"/>
		<path fill-rule="evenodd" clip-rule="evenodd" fill="#788792" d="M387.632,314.023c0.238,19.461,2.548,39.473-14.448,54.353
			c-1.038,0.694-1.564,1.876-2.515,2.655c-0.658,0.645-1.496,1.068-2.16,1.709c-0.519,0.435-1.037,0.869-1.557,1.303
			c-0.997-1.04-0.983,0.242-1.37,0.601c-32.746,18.962-65.332,38.2-98.289,56.787c-21.515,12.132-40.479,3.028-42.836-19.782
			c-0.438-0.573-0.338-1.026,0.298-1.364c7.676,9.133,16.648,7.461,25.43,2.433c38.885-22.261,77.546-44.912,116.502-67.051
			C379.293,338.501,384.88,327.367,387.632,314.023z"/>
		<path fill-rule="evenodd" clip-rule="evenodd" fill="#F7D44A" d="M94.032,310.979c0.185-43.064-2.013-86.315,1.346-129.13
			c2.465-31.402,34.65-37.637,56.465-51.535c20.978-13.364,42.849-25.36,64.605-37.456c14.617-8.127,22.258-1.793,25.207,13.731
			c-37.778,22.28-75.229,44.367-112.682,66.456c-0.665-0.22-1.207-0.048-1.626,0.512l0.132-0.086
			c-0.782,0.372-1.522,0.815-2.218,1.333c-3.287,3.029-6.58,6.027-10.175,8.727c-11.905,8.939-18.06,20.865-18.074,35.864
			c-0.025,26.859,0.058,53.718-0.073,80.577C96.921,303.8,97.855,308.071,94.032,310.979z"/>
		<path fill-rule="evenodd" clip-rule="evenodd" fill="#E65524" d="M94.032,310.979c0.098-26.837,1.162-53.717,0.018-80.5
			c-1.115-26.119,7.648-45.396,31.799-56.708c0.375,0.287,0.512,0.586,0.413,0.902c-0.102,0.323-0.211,0.484-0.328,0.484
			c-5.86,8.171-7.792,17.225-7.708,27.293c0.319,39.072,0.129,78.15,0.129,118.012C106.742,326.107,97.06,327.771,94.032,310.979z"
			/>
		<path fill-rule="evenodd" clip-rule="evenodd" fill="#F7D44A" d="M138,232.114c-5.601-33.586,11.349-53.063,39.841-67.039
			c21.363-10.478,41.462-23.532,62.915-35.896c0,9.794,0,18.804,0,28.602c-22.428,13.063-45.366,26.423-68.305,39.783
			c-0.686,0.336-1.23,0.833-1.672,1.449l0.14-0.079c-0.593,0.371-1.209,0.7-1.851,0.98c-3.768,3.21-7.711,6.151-11.922,8.795
			c-6.894,4.329-11.984,10.265-14.911,17.999C141.423,228.858,141.31,231.816,138,232.114z"/>
		<path fill-rule="evenodd" clip-rule="evenodd" fill="#E65524" d="M138,232.114c4.247-16.845,16.674-25.902,31.289-32.878
			c0.374,0.287,0.512,0.586,0.413,0.902c-0.102,0.323-0.211,0.484-0.328,0.484c-14.861,25.404-4.56,53.197-7.506,79.735
			c-0.518,4.663-0.073,9.434-0.073,14.824c-7.563,4.394-15.162,8.807-23.794,13.822C138,282.662,138,257.388,138,232.114z"/>
		<path fill-rule="evenodd" clip-rule="evenodd" fill="#F7D44A" d="M181.439,259.076c-2.96-41.581,7.766-55.966,59.265-78.9
			c0,9.221,0,18.178,0,28.073c-7.423,4.229-15.369,8.756-23.314,13.283c-0.68,0.351-1.231,0.848-1.677,1.467l0.13-0.13
			c-0.616,0.462-1.152,1.005-1.631,1.605l0.137-0.089c-0.588,0.384-1.205,0.718-1.849,1c-3.62,2.977-7.356,5.784-11.303,8.325
			c-7.507,4.834-12.897,11.33-15.654,19.95C184.844,255.845,184.753,258.758,181.439,259.076z"/>
		<path fill-rule="evenodd" clip-rule="evenodd" fill="#E65524" d="M181.439,259.076c3.957-17.352,15.727-27.594,31.289-34.382
			c0.375,0.289,0.512,0.589,0.412,0.907c-0.102,0.325-0.211,0.486-0.328,0.486c-10.376,13.202-6.761,28.88-7.594,44.123
			c-7.555,4.336-15.156,8.697-23.779,13.646C181.439,274.74,181.439,266.91,181.439,259.076z"/>
		<path fill-rule="evenodd" clip-rule="evenodd" fill="#2B353F" d="M330.932,342.208c0.919-0.965,1.838-1.927,2.756-2.889
			c0.72,0.686,1.442,1.372,2.165,2.059c-1.609,0.905-3.218,1.81-4.827,2.716c-0.362-0.402-0.497-0.816-0.404-1.241
			C330.716,342.423,330.819,342.208,330.932,342.208z"/>
		<path fill-rule="evenodd" clip-rule="evenodd" fill="#B6BEC5" d="M139.021,361.035c-0.445,0.911-0.889,1.821-1.333,2.733
			c-0.469-1.469-0.938-2.938-2.333-7.316C137.842,359.563,138.432,360.299,139.021,361.035z"/>
		<path fill-rule="evenodd" clip-rule="evenodd" fill="#A7ABAF" d="M374.855,152.786c-0.033,0.816-0.064,1.633-0.095,2.45
			c-1.12,0.05-2.241,0.1-6.233,0.279C372.375,153.856,373.614,153.322,374.855,152.786z"/>
		<path fill-rule="evenodd" clip-rule="evenodd" fill="#B6BEC5" d="M94.395,335.264c-0.048,1.514-0.096,3.026-0.146,4.54
			C94.298,338.29,94.347,336.777,94.395,335.264z"/>
		<path fill-rule="evenodd" clip-rule="evenodd" fill="#454C55" d="M238.242,296.219c1.066-0.869,2.132-1.738,3.198-2.606
			c0.087,0.504,0.018,0.983-0.207,1.441c-0.476,0.442-0.951,0.885-1.426,1.327C239.224,296.911,238.703,296.857,238.242,296.219z"/>
		<path fill-rule="evenodd" clip-rule="evenodd" fill="#454C55" d="M281.629,321.854c1.033-0.987,2.065-1.973,3.099-2.959
			c0.246,0.284,0.492,0.567,0.737,0.849c-0.252,0.276-0.506,0.554-0.759,0.83C283.68,321,282.656,321.425,281.629,321.854z"/>
		<path fill-rule="evenodd" clip-rule="evenodd" fill="#454C55" d="M370.006,371.26c1.06-0.961,2.118-1.922,3.178-2.884
			c-0.043,0.524-0.089,1.05-0.134,1.573c-0.475,0.441-0.949,0.884-1.423,1.323c-0.271,0.18-0.543,0.358-0.815,0.538
			C370.543,371.629,370.276,371.444,370.006,371.26z"/>
		<path fill-rule="evenodd" clip-rule="evenodd" fill="#202B36" d="M330.932,342.208c0.032,0.627,0.063,1.257,0.094,1.886
			c-0.488,0.355-0.975,0.711-1.462,1.066l0.008-0.004C330.025,344.175,330.479,343.191,330.932,342.208z"/>
		<path fill-rule="evenodd" clip-rule="evenodd" fill="#D7DBDF" d="M224.755,410.284c0.05,0.487-0.05,0.941-0.298,1.364
			c-0.354-0.473-0.709-0.942-2.011-2.673C224.086,409.905,224.42,410.096,224.755,410.284z"/>
		<path fill-rule="evenodd" clip-rule="evenodd" fill="#54626F" d="M322.117,348.939c0.21-0.304,0.418-0.608,0.639-0.914
			c0.294,0.24,0.572,0.482,0.854,0.725c-0.513,0.35-1.024,0.7-1.536,1.05C322.087,349.513,322.104,349.227,322.117,348.939z"/>
		<path fill-rule="evenodd" clip-rule="evenodd" fill="#788792" d="M238.242,296.219c0.522,0.054,1.044,0.107,1.566,0.162
			c-0.562,0.381-1.123,0.765-1.684,1.148c-0.289-0.309-0.371-0.603-0.248-0.883c0.119-0.271,0.231-0.409,0.338-0.409
			L238.242,296.219z"/>
		<path fill-rule="evenodd" clip-rule="evenodd" fill="#54626F" d="M233.764,299.747c0.458-0.2,0.915-0.399,1.372-0.6
			C234.679,299.348,234.222,299.547,233.764,299.747z"/>
		<path fill-rule="evenodd" clip-rule="evenodd" fill="#E65524" d="M169.374,200.622c-0.045-0.462-0.073-0.927-0.086-1.39
			c0.544-0.096,1.087-0.197,1.63-0.296C170.403,199.497,169.889,200.06,169.374,200.622z"/>
		<path fill-rule="evenodd" clip-rule="evenodd" fill="#C8CACD" d="M285.113,104.261c-0.285,0.231-0.57,0.462,1.282-1.036
			c-1.92,1.436-1.636,1.225-1.348,1.017c0.006,0.004-0.174,0.344-0.174,0.344L285.113,104.261z"/>
		<path fill-rule="evenodd" clip-rule="evenodd" fill="#454E57" d="M289.053,318.353c0.505-0.378,1.011-0.754,1.518-1.131
			C290.063,317.599,289.558,317.975,289.053,318.353z"/>
		<path fill-rule="evenodd" clip-rule="evenodd" fill="#EC7A30" d="M127.347,173.557c0.191-0.327,0.382-0.653,0.594-0.979
			c0.356,0.156,0.692,0.312,1.03,0.466C128.431,173.215,127.889,173.386,127.347,173.557z"/>
		<path fill-rule="evenodd" clip-rule="evenodd" fill="#EC7A30" d="M170.779,199.014c0.558-0.484,1.116-0.967,1.673-1.449
			C171.894,198.049,171.336,198.532,170.779,199.014z"/>
		<path fill-rule="evenodd" clip-rule="evenodd" fill="#454E57" d="M286.167,318.72c0.507,0.021,1.015,0.042,1.521,0.063
			c-0.545,0.372-1.092,0.742-1.637,1.114c-0.391-0.304-0.505-0.578-0.341-0.827C285.866,318.836,286.019,318.72,286.167,318.72z"/>
		<path fill-rule="evenodd" clip-rule="evenodd" fill="#202B36" d="M280.13,323.285c0.543-0.521,1.084-1.04,1.629-1.562
			C281.214,322.243,280.673,322.765,280.13,323.285z"/>
		<path fill-rule="evenodd" clip-rule="evenodd" fill="#54626F" d="M277.204,325.211c0.455-0.205,0.908-0.412,1.364-0.618
			C278.112,324.799,277.659,325.006,277.204,325.211z"/>
		<path fill-rule="evenodd" clip-rule="evenodd" fill="#EC7A30" d="M214.212,224.473c0.544-0.534,1.088-1.069,1.631-1.604
			C215.3,223.404,214.756,223.938,214.212,224.473z"/>
		<path fill-rule="evenodd" clip-rule="evenodd" fill="#E65524" d="M125.934,175.157c-0.045-0.462-0.073-0.927-0.085-1.39
			c0.543-0.097,1.086-0.197,1.629-0.297C126.964,174.032,126.449,174.596,125.934,175.157z"/>
		<path fill-rule="evenodd" clip-rule="evenodd" fill="#E65524" d="M212.813,226.087c-0.046-0.466-0.074-0.933-0.084-1.396
			c0.541-0.101,1.081-0.204,1.621-0.307C213.837,224.952,213.325,225.519,212.813,226.087z"/>
		<path fill-rule="evenodd" clip-rule="evenodd" fill="#202B36" d="M329.571,345.156l-0.008,0.004
			c-0.5,0.23-0.999,0.464-1.496,0.696C328.57,345.624,329.071,345.39,329.571,345.156z"/>
		<path fill-rule="evenodd" clip-rule="evenodd" fill="#202B36" d="M286.167,318.72c-0.17,0.378-0.209,0.772-0.115,1.178
			c-0.448,0.226-0.897,0.45-1.346,0.676c0.007-0.56,0.012-1.119,0.021-1.679c0.001,0,0.024-0.05,0.024-0.05
			c0.412-0.597,0.881-0.616,1.396-0.137L286.167,318.72z"/>
		<path fill-rule="evenodd" clip-rule="evenodd" fill="#EC7A30" d="M215.713,222.999c0.559-0.49,1.118-0.979,1.677-1.467
			C216.831,222.021,216.272,222.51,215.713,222.999z"/>
		<path fill-rule="evenodd" clip-rule="evenodd" fill="#54626F" d="M322.117,348.939c-0.03,0.287-0.044,0.573-0.044,0.86
			c-0.491,0.192-0.983,0.382-1.475,0.573C321.104,349.896,321.611,349.419,322.117,348.939z"/>
		<path fill-rule="evenodd" clip-rule="evenodd" fill="#54626F" d="M238.214,296.237c-0.044,0.431-0.074,0.86-0.09,1.292
			c-0.446,0.22-0.917,0.358-1.41,0.416C237.213,297.377,237.714,296.808,238.214,296.237z"/>
		<path fill-rule="evenodd" clip-rule="evenodd" fill="#202B36" d="M368.509,372.74c0.499-0.494,0.997-0.988,1.497-1.48
			l-0.078-0.085c0.43,0.305,0.565,0.597,0.408,0.878c-0.154,0.275-0.308,0.412-0.459,0.412
			C369.443,372.671,368.986,372.764,368.509,372.74z"/>
		<path fill-rule="evenodd" clip-rule="evenodd" fill="#788792" d="M369.877,372.465c0.061-0.429,0.077-0.858,0.051-1.29
			c0.565,0.032,1.133,0.065,1.699,0.098C371.045,371.671,370.461,372.068,369.877,372.465z"/>
		<path fill-rule="evenodd" clip-rule="evenodd" fill="#54626F" d="M365.582,374.644c0.458-0.202,0.913-0.399,1.37-0.601
			C366.495,374.244,366.04,374.441,365.582,374.644z"/>
		<path fill-rule="evenodd" clip-rule="evenodd" fill="#54626F" d="M325.138,347.681c0.455-0.207,0.908-0.413,1.364-0.619
			C326.046,347.268,325.593,347.474,325.138,347.681z"/>
		<path fill-rule="evenodd" clip-rule="evenodd" fill="#454E57" d="M287.828,315.883c0.476-0.477,0.951-0.954,1.429-1.433
			C288.78,314.929,288.304,315.406,287.828,315.883z"/>
		<path fill-rule="evenodd" clip-rule="evenodd" fill="#454E57" d="M286.147,318.708c-0.462,0.078-0.928,0.124-1.396,0.137
			c0.515-0.47,1.029-0.937,1.542-1.407C286.313,317.87,286.267,318.294,286.147,318.708z"/>
		<path fill-rule="evenodd" clip-rule="evenodd" fill="#454E57" d="M286.331,317.382c0.474-0.479,0.95-0.955,1.427-1.432
			C287.281,316.427,286.807,316.903,286.331,317.382z"/>
	</g>
</g>
</svg>
